 <svg  class="social-tg"  viewBox="0 0 18 16" fill="none" xmlns="http://www.w3.org/2000/svg"><path fill-rule="evenodd" clip-rule="evenodd" d="M1.51233 7.19786C6.21538 5.06133 9.34626 3.64166 10.9184 2.95291C15.393 0.999109 16.3336 0.661761 16.9383 0.647705C17.0727 0.647705 17.3683 0.675818 17.5699 0.844491C17.7311 0.985053 17.7714 1.16778 17.7983 1.30834C17.8252 1.44891 17.8521 1.74408 17.8252 1.96898C17.5833 4.63965 16.5352 11.1195 15.9977 14.0994C15.7693 15.3645 15.3258 15.7862 14.8959 15.8283C13.9552 15.9127 13.2431 15.1817 12.3428 14.5633C10.9184 13.5934 10.1256 12.989 8.74158 12.0332C7.14255 10.9368 8.17722 10.3324 9.09095 9.34845C9.33282 9.09544 13.4581 5.15973 13.5387 4.80832C13.5521 4.76615 13.5521 4.59748 13.4581 4.51314C13.364 4.42881 13.2296 4.45692 13.1221 4.48503C12.9743 4.51314 10.7169 6.08743 6.32288 9.19384C5.67789 9.65769 5.10008 9.88259 4.57603 9.86853C3.99823 9.85447 2.89637 9.53118 2.06326 9.25006C1.05547 8.91271 0.249229 8.72998 0.316415 8.13963C0.356727 7.83039 0.759845 7.52116 1.51233 7.19786Z" fill=""></path></svg>