<svg  class="social-vk" width="20" height="13" viewBox="0 0 20 13" fill="none" xmlns="http://www.w3.org/2000/svg"><path d="M10.9176 12.487C4.52729 12.487 0.882342 8.10607 0.730469 0.816162H3.93148C4.03663 6.16677 6.3965 8.43318 8.26571 8.90048V0.816162H11.2798V5.43077C13.1256 5.23216 15.0649 3.12931 15.7192 0.816162H18.7333C18.4867 2.01582 17.9953 3.15171 17.2897 4.15278C16.5842 5.15384 15.6796 5.99855 14.6327 6.63407C15.8013 7.21476 16.8335 8.03667 17.6612 9.04557C18.4889 10.0545 19.0931 11.2274 19.4342 12.487H16.1164C15.8102 11.393 15.1879 10.4136 14.3276 9.6717C13.4672 8.92978 12.407 8.4583 11.2798 8.31635V12.487H10.9176Z" fill=""></path></svg>